<?xml version="1.0" encoding="utf-8"?>
<!-- Generator: Adobe Illustrator 21.0.0, SVG Export Plug-In . SVG Version: 6.00 Build 0)  -->
<svg version="1.1" id="Layer_1" xmlns="http://www.w3.org/2000/svg" xmlns:xlink="http://www.w3.org/1999/xlink" x="0px" y="0px"
	 viewBox="0 0 939.3 197.7" style="enable-background:new 0 0 939.3 197.7;" xml:space="preserve">
<style type="text/css">
	.st0{fill:#98D36D;}
	.st1{fill:#FFFFFF;}
	.st2{fill:none;stroke:#003262;stroke-miterlimit:10;}
</style>
<g id="Arctos_Bear">
	<g>
		<g id="XMLID_1_">
			<g>
				<path class="st0" d="M952.5-8.5c0,71,0,142,0,213c-320,0-640,0-960,0c0-71,0-142,0-213C312.5-8.5,632.5-8.5,952.5-8.5z
					 M157.4,159.8c0-4.7,0.4-9.2-0.1-13.6c-1.5-14.6-2.7-29.3-5-43.8c-2.2-14-8.4-26.4-17.7-37.2c-9-10.3-18.8-19.6-31.6-25.2
					c-5.4-2.4-10.8-4.9-16.1-7.4c-2.2-1-4.3-2.2-6.4-3.3c0.6-0.6,1.1-0.5,1.5-0.7c1.3-0.5,3.4-0.8,3.7-1.7c0.8-2-0.5-3.8-2.5-4.6
					c-1.8-0.8-3.8-1.6-5.7-1.6c-5.7,0.1-10.7-2.2-15.8-4.4c-2.3-1-4.9-1.7-7.3-1.8c-4.7-0.2-9.1-1.4-13.4-3.2
					c-3.7-1.5-7.8-2.2-11.7-3.2c-0.7-0.2-1.9,0.3-2.2,0.9c-1.8,3.4-3.4,7.1-1.1,10.9c2.8,4.6,5.4,9.3,8.6,13.5
					c7,9,14.4,17.8,21.5,26.7c4.7,5.9,8.7,12.3,10.4,19.8c1.6,7.3,0.5,14.5-0.7,21.7c-3.2,20.1-10.5,38.1-25.1,52.8
					c-1.8,1.8-3.4,3.7-5.1,5.6c13.2,0,26.2,0,39.2,0c0-1.7-0.1-3,0-4.2c0.4-7.3,2.2-14.1,7.1-19.7c1.6-1.8,4-3,6.2-4.3
					c1.3-0.8,2.4-0.2,3.2,1.1c1.7,2.6,2.7,5.6,2.1,8.6c-1.1,5-2.5,9.9-3.8,14.8c-0.3,1.1-0.6,2.2-1,3.6
					C111.7,159.8,134.5,159.8,157.4,159.8z"/>
				<path class="st1" d="M157.3,146.2c0.4,4.4,0.1,8.9,0.1,13.6c-22.9,0-45.7,0-68.8,0c0.4-1.4,0.7-2.5,1-3.6
					c1.3-4.9,2.8-9.8,3.8-14.8c0.6-3.1-0.3-6-2.1-8.6c-0.8-1.3-1.9-1.9-3.2-1.1c-2.2,1.3-4.6,2.4-6.2,4.3
					c-4.9,5.6-6.6,12.4-7.1,19.7c-0.1,1.3,0,2.6,0,4.2c-13,0-26,0-39.2,0c1.7-1.9,3.3-3.8,5.1-5.6c14.6-14.7,21.9-32.7,25.1-52.8
					c1.1-7.2,2.3-14.4,0.7-21.7c-1.7-7.5-5.6-13.9-10.4-19.8C49,51.2,41.6,42.5,34.6,33.4c-3.3-4.2-5.9-8.9-8.6-13.5
					c-2.3-3.8-0.8-7.4,1.1-10.9c0.3-0.6,1.6-1,2.2-0.9c3.9,0.9,8,1.7,11.7,3.2c4.4,1.7,8.7,3,13.4,3.2c2.5,0.1,5,0.8,7.3,1.8
					c5.1,2.2,10,4.5,15.8,4.4c1.9,0,3.9,0.8,5.7,1.6c2,0.8,3.3,2.6,2.5,4.6c-0.4,0.9-2.4,1.2-3.7,1.7c-0.4,0.2-0.9,0.1-1.5,0.7
					c2.1,1.1,4.3,2.3,6.4,3.3c5.3,2.5,10.7,5.1,16.1,7.4c12.8,5.6,22.7,14.8,31.6,25.2c9.3,10.7,15.5,23.2,17.7,37.2
					C154.6,116.9,155.9,131.6,157.3,146.2z"/>
			</g>
			<g>
				<path class="st2" d="M-7.5,204.5c0-71,0-142,0-213c320,0,640,0,960,0c0,71,0,142,0,213C632.5,204.5,312.5,204.5-7.5,204.5z"/>
				<path class="st2" d="M157.4,159.8c-22.9,0-45.7,0-68.8,0c0.4-1.4,0.7-2.5,1-3.6c1.3-4.9,2.8-9.8,3.8-14.8c0.6-3.1-0.3-6-2.1-8.6
					c-0.8-1.3-1.9-1.9-3.2-1.1c-2.2,1.3-4.6,2.4-6.2,4.3c-4.9,5.6-6.6,12.4-7.1,19.7c-0.1,1.3,0,2.6,0,4.2c-13,0-26,0-39.2,0
					c1.7-1.9,3.3-3.8,5.1-5.6c14.6-14.7,21.9-32.7,25.1-52.8c1.1-7.2,2.3-14.4,0.7-21.7c-1.7-7.5-5.6-13.9-10.4-19.8
					C49,51.2,41.6,42.5,34.6,33.4c-3.3-4.2-5.9-8.9-8.6-13.5c-2.3-3.8-0.8-7.4,1.1-10.9c0.3-0.6,1.6-1,2.2-0.9
					c3.9,0.9,8,1.7,11.7,3.2c4.4,1.7,8.7,3,13.4,3.2c2.5,0.1,5,0.8,7.3,1.8c5.1,2.2,10,4.5,15.8,4.4c1.9,0,3.9,0.8,5.7,1.6
					c2,0.8,3.3,2.6,2.5,4.6c-0.4,0.9-2.4,1.2-3.7,1.7c-0.4,0.2-0.9,0.1-1.5,0.7c2.1,1.1,4.3,2.3,6.4,3.3c5.3,2.5,10.7,5.1,16.1,7.4
					c12.8,5.6,22.7,14.8,31.6,25.2c9.3,10.7,15.5,23.2,17.7,37.2c2.3,14.5,3.5,29.2,5,43.8C157.8,150.6,157.4,155.1,157.4,159.8z"/>
			</g>
		</g>
	</g>
</g>
<g id="rctos">
	<g>
		<path class="st1" d="M204.2,108.7c-2.1-0.4-4.1-0.6-6-0.6c-6.7,0-11.6,3.1-14.6,9.3v34.9h8.8v8.1h-26.5v-8.1h8.8v-45.7h-8.8v-8.1
			H183l0.6,9h0.3c3.8-6,9.1-9,15.8-9c1.5,0,3,0.1,4.6,0.4v9.8H204.2z"/>
		<path class="st1" d="M263.1,155.7c-6.2,3.1-12.9,4.7-20.1,4.7c-8.9,0-16.2-2.7-21.7-8c-5.6-5.3-8.3-12.7-8.3-22.3
			c0-10,2.9-17.8,8.8-23.4c5.8-5.6,13.3-8.3,22.5-8.3c6.6,0,12.9,1.3,18.9,3.9v13.9h-8.8v-8.3c-2.9-1-6.4-1.5-10.6-1.5
			c-6.8,0-12,1.9-15.6,5.7c-3.6,3.8-5.5,9.2-5.5,16.2c0,7.8,1.8,13.7,5.5,17.6c3.6,3.9,9,5.9,16.1,5.9c6.4,0,12.7-1.7,19-5.2v9.1
			H263.1z"/>
		<path class="st1" d="M297.5,160.4c-4.8,0-8.8-1.2-11.9-3.5c-3.1-2.4-4.7-6-4.7-10.9v-39.4H272v-8.1h8.8V82.4l8.8-1.6v17.7h19.2
			v8.1h-19.2v37.9c0,2.8,0.9,4.7,2.7,6c1.8,1.2,3.9,1.8,6.5,1.8c3.2,0,6.6-0.9,10-2.7v7.8C305.2,159.5,301.4,160.4,297.5,160.4z"/>
		<path class="st1" d="M319.2,129.8c0-9.6,2.7-17.3,8.1-22.9s12.3-8.4,20.6-8.4c8.3,0,14.9,2.6,19.8,7.9c5,5.3,7.4,12.6,7.4,22
			c0,9.8-2.6,17.6-7.9,23.4c-5.3,5.8-12.1,8.6-20.6,8.6c-8.3,0-14.9-2.8-20-8.3C321.7,146.7,319.2,139.2,319.2,129.8z M328.7,128.4
			c0,7.9,1.6,13.8,4.9,17.8c3.2,4,7.9,6,14,6c5.8,0,10.2-1.9,13.3-5.8c3.1-3.8,4.6-9.5,4.6-17.1c0-7.7-1.5-13.4-4.6-17.2
			c-3.1-3.8-7.8-5.7-14.1-5.7c-5.6,0-10,1.7-13.3,5.2C330.4,115.4,328.7,120.9,328.7,128.4z"/>
		<path class="st1" d="M391.4,115.5c0-5.4,2.2-9.6,6.7-12.6s10.3-4.4,17.5-4.4c6.1,0,12.5,1.1,19.3,3.3v14.5H426V108
			c-3.4-0.9-7.2-1.3-11.2-1.3c-3.9,0-7.2,0.6-9.9,1.9s-4,3.2-4,5.8c0,1.6,0.3,2.8,1,3.9c0.6,1,1.6,1.9,2.9,2.6s2.9,1.4,4.9,2.1
			s4.2,1.4,6.8,2.2c2.5,0.8,4.9,1.6,7.4,2.5c2.5,0.9,4.7,2,6.6,3.3c2,1.3,3.6,2.9,4.8,4.8c1.2,1.9,1.8,4.3,1.8,7.2
			c0,5.5-2.3,9.8-6.9,12.9c-4.6,3.1-10.7,4.7-18.3,4.7c-6.8,0-13.4-1.4-19.8-4.1v-13.8h8.8v8.4c3.6,0.9,7.5,1.3,11.6,1.3
			s7.6-0.7,10.5-2s4.3-3.4,4.3-6.2c0-3-1.3-5.2-3.9-6.6c-2.6-1.4-6.3-2.7-11-4.1c-2.5-0.7-4.9-1.5-7.4-2.4s-4.8-2-6.9-3.3
			s-3.7-3-5-4.9C392,120.9,391.4,118.5,391.4,115.5z"/>
	</g>
</g>
<g id="CCMS">
	<g>
		<path class="st1" d="M39.7,187.4c-1.9,1.1-3.8,1.6-5.7,1.6c-2.5,0-4.5-0.8-6-2.3c-1.5-1.6-2.3-3.7-2.3-6.3c0-2.8,0.8-4.9,2.3-6.4
			s3.5-2.3,6-2.3c1.9,0,3.7,0.4,5.6,1.3v4.4h-1.9v-3.2c-1.1-0.5-2.4-0.8-3.8-0.8c-2,0-3.5,0.6-4.5,1.8s-1.6,2.8-1.6,5
			s0.6,3.9,1.7,5.1c1.1,1.3,2.7,1.9,4.6,1.9c1.7,0,3.6-0.6,5.5-1.7v1.9H39.7z"/>
		<path class="st1" d="M42.9,182.3c0-2.1,0.6-3.8,1.8-5s2.7-1.8,4.5-1.8s3.2,0.6,4.3,1.7c1.1,1.1,1.6,2.7,1.6,4.8s-0.6,3.8-1.7,5.1
			c-1.1,1.3-2.6,1.9-4.5,1.9c-1.8,0-3.2-0.6-4.3-1.8S42.9,184.4,42.9,182.3z M45,182.1c0,1.7,0.4,3,1.1,3.9c0.7,0.9,1.7,1.3,3,1.3
			s2.2-0.4,2.9-1.3c0.7-0.8,1-2.1,1-3.7c0-1.7-0.3-2.9-1-3.7s-1.7-1.2-3.1-1.2c-1.2,0-2.2,0.4-2.9,1.1S45,180.4,45,182.1z"/>
		<path class="st1" d="M57.7,187.2h1.9v-15.7h-1.9v-1.8h3.8v17.5h1.9v1.8h-5.8L57.7,187.2L57.7,187.2z"/>
		<path class="st1" d="M65.4,187.2h1.9v-15.7h-1.9v-1.8h3.8v17.5h1.9v1.8h-5.8L65.4,187.2L65.4,187.2z"/>
		<path class="st1" d="M73.7,176.7c1.6-0.7,3.2-1.1,4.9-1.1c1.5,0,2.5,0.3,3.3,1s1.1,1.7,1.1,3.2v7.5h1.9v1.8h-3.7l-0.1-2H81
			c-1.2,1.3-2.5,2-4.1,2c-1.3,0-2.3-0.3-2.9-1c-0.7-0.7-1-1.6-1-2.7c0-2.9,2.3-4.3,6.8-4.3h1.3v-1.3c0-0.8-0.2-1.4-0.7-1.8
			c-0.4-0.4-1.1-0.6-2.1-0.6c-1.4,0-2.9,0.4-4.6,1.1L73.7,176.7L73.7,176.7z M79.4,182.8c-2.9,0-4.4,0.8-4.4,2.4
			c0,0.7,0.2,1.2,0.6,1.5s1,0.5,1.7,0.5c1.4,0,2.6-0.7,3.8-2v-2.5h-1.7V182.8z"/>
		<path class="st1" d="M90.4,177L90.4,177c1.2-0.9,2.5-1.4,3.8-1.4c1.6,0,2.8,0.6,3.7,1.8s1.4,2.7,1.4,4.6c0,2.1-0.6,3.8-1.7,5.1
			s-2.7,2-4.9,2c-1.3,0-2.8-0.2-4.4-0.6v-16.9h-1.9v-1.8h3.8v7.2H90.4z M90.4,187.1c0.8,0.2,1.5,0.3,2.3,0.3c1.6,0,2.7-0.4,3.5-1.3
			s1.1-2.1,1.1-3.8c0-1.5-0.3-2.7-1-3.6c-0.7-0.9-1.6-1.3-2.7-1.3s-2.2,0.4-3.2,1.3C90.4,178.7,90.4,187.1,90.4,187.1z"/>
		<path class="st1" d="M102.6,182.3c0-2.1,0.6-3.8,1.8-5c1.2-1.2,2.7-1.8,4.5-1.8s3.2,0.6,4.3,1.7c1.1,1.1,1.6,2.7,1.6,4.8
			s-0.6,3.8-1.7,5.1s-2.6,1.9-4.5,1.9c-1.8,0-3.2-0.6-4.3-1.8C103.1,186,102.6,184.4,102.6,182.3z M104.6,182.1c0,1.7,0.4,3,1.1,3.9
			s1.7,1.3,3,1.3s2.2-0.4,2.9-1.3c0.7-0.8,1-2.1,1-3.7c0-1.7-0.3-2.9-1-3.7s-1.7-1.2-3.1-1.2c-1.2,0-2.2,0.4-2.9,1.1
			S104.6,180.4,104.6,182.1z"/>
		<path class="st1" d="M125.6,177.8c-0.4-0.1-0.9-0.1-1.3-0.1c-1.5,0-2.5,0.7-3.2,2v7.6h1.9v1.8h-5.8v-1.8h1.9v-9.9h-1.9v-1.8h3.7
			l0.1,2h0.1c0.8-1.3,2-2,3.4-2c0.3,0,0.7,0,1,0.1v2.1H125.6z"/>
		<path class="st1" d="M127.6,176.7c1.6-0.7,3.2-1.1,4.9-1.1c1.5,0,2.5,0.3,3.3,1s1.1,1.7,1.1,3.2v7.5h1.9v1.8h-3.7l-0.1-2h-0.1
			c-1.2,1.3-2.5,2-4.1,2c-1.3,0-2.3-0.3-2.9-1c-0.7-0.7-1-1.6-1-2.7c0-2.9,2.3-4.3,6.8-4.3h1.3v-1.3c0-0.8-0.2-1.4-0.7-1.8
			c-0.4-0.4-1.1-0.6-2.1-0.6c-1.4,0-2.9,0.4-4.6,1.1L127.6,176.7L127.6,176.7z M133.3,182.8c-2.9,0-4.4,0.8-4.4,2.4
			c0,0.7,0.2,1.2,0.6,1.5c0.4,0.3,1,0.5,1.7,0.5c1.4,0,2.6-0.7,3.8-2v-2.5h-1.7V182.8z"/>
		<path class="st1" d="M145.9,189c-1,0-1.9-0.3-2.6-0.8c-0.7-0.5-1-1.3-1-2.4v-8.6h-1.9v-1.8h1.9v-3.5l1.9-0.4v3.8h4.2v1.8h-4.2v8.2
			c0,0.6,0.2,1,0.6,1.3c0.4,0.3,0.9,0.4,1.4,0.4c0.7,0,1.4-0.2,2.2-0.6v1.7C147.6,188.8,146.8,189,145.9,189z"/>
		<path class="st1" d="M150,187.2h1.9v-9.9H150v-1.8h3.8v11.7h1.9v1.8H150V187.2z M151.3,172.2c0-0.5,0.1-0.9,0.4-1.2
			c0.3-0.3,0.6-0.4,1-0.4s0.8,0.1,1,0.4c0.3,0.3,0.4,0.6,0.4,1.1s-0.1,0.8-0.4,1.1c-0.3,0.3-0.6,0.4-1,0.4s-0.8-0.1-1-0.4
			C151.4,172.9,151.3,172.6,151.3,172.2z"/>
		<path class="st1" d="M164.2,189h-2l-4.2-11.7h-1.6v-1.8h5.1v1.8H160l3.2,9.2h0.1l3.5-9.2h-1.4v-1.8h4.5v1.8h-1.3L164.2,189z"/>
		<path class="st1" d="M178.3,187.2c1.4,0,2.8-0.4,4.1-1.3v1.9c-1.4,0.8-2.8,1.2-4.4,1.2c-1.9,0-3.4-0.6-4.6-1.8
			c-1.1-1.2-1.7-2.8-1.7-4.7c0-2.2,0.5-3.9,1.7-5.1s2.5-1.8,4.3-1.8c1.6,0,2.8,0.5,3.6,1.6c0.9,1.1,1.3,2.5,1.3,4.4v1h-8.8
			c0.1,1.5,0.4,2.6,1.1,3.5C175.7,186.8,176.8,187.2,178.3,187.2z M180.8,180.8c-0.1-2.3-1.2-3.5-3.2-3.5c-1.1,0-1.9,0.3-2.5,0.9
			c-0.6,0.6-1,1.5-1.1,2.5h6.8V180.8z"/>
		<path class="st1" d="M205.1,187.4c-1.9,1.1-3.8,1.6-5.7,1.6c-2.5,0-4.5-0.8-6-2.3c-1.5-1.6-2.3-3.7-2.3-6.3c0-2.8,0.8-4.9,2.3-6.4
			s3.5-2.3,6-2.3c1.9,0,3.7,0.4,5.6,1.3v4.4h-1.9v-3.2c-1.1-0.5-2.4-0.8-3.8-0.8c-2,0-3.5,0.6-4.5,1.8s-1.6,2.8-1.6,5
			s0.6,3.9,1.7,5.1c1.1,1.3,2.7,1.9,4.6,1.9c1.7,0,3.6-0.6,5.5-1.7L205.1,187.4L205.1,187.4z"/>
		<path class="st1" d="M208.3,182.3c0-2.1,0.6-3.8,1.8-5s2.7-1.8,4.5-1.8s3.2,0.6,4.3,1.7c1.1,1.1,1.6,2.7,1.6,4.8s-0.6,3.8-1.7,5.1
			c-1.1,1.3-2.6,1.9-4.5,1.9c-1.8,0-3.2-0.6-4.3-1.8C208.9,186,208.3,184.4,208.3,182.3z M210.4,182.1c0,1.7,0.4,3,1.1,3.9
			c0.7,0.9,1.7,1.3,3,1.3s2.2-0.4,2.9-1.3c0.7-0.8,1-2.1,1-3.7c0-1.7-0.3-2.9-1-3.7s-1.7-1.2-3.1-1.2c-1.2,0-2.2,0.4-2.9,1.1
			S210.4,180.4,210.4,182.1z"/>
		<path class="st1" d="M223.1,187.2h1.9v-15.7h-1.9v-1.8h3.8v17.5h1.9v1.8H223v-1.8H223.1z"/>
		<path class="st1" d="M230.8,187.2h1.9v-15.7h-1.9v-1.8h3.8v17.5h1.9v1.8h-5.8v-1.8H230.8z"/>
		<path class="st1" d="M245.6,187.2c1.4,0,2.8-0.4,4.1-1.3v1.9c-1.4,0.8-2.8,1.2-4.4,1.2c-1.9,0-3.4-0.6-4.6-1.8
			c-1.1-1.2-1.7-2.8-1.7-4.7c0-2.2,0.5-3.9,1.7-5.1s2.5-1.8,4.3-1.8c1.6,0,2.8,0.5,3.6,1.6c0.9,1.1,1.3,2.5,1.3,4.4v1h-8.8
			c0.1,1.5,0.4,2.6,1.1,3.5C243,186.8,244.1,187.2,245.6,187.2z M248.1,180.8c-0.1-2.3-1.2-3.5-3.2-3.5c-1.1,0-1.9,0.3-2.5,0.9
			c-0.6,0.6-1,1.5-1.1,2.5h6.8V180.8z"/>
		<path class="st1" d="M263.5,188c-1.3,0.7-2.8,1-4.4,1c-1.9,0-3.5-0.6-4.7-1.7c-1.2-1.2-1.8-2.8-1.8-4.8c0-2.2,0.6-3.9,1.9-5.1
			s2.9-1.8,4.9-1.8c1.4,0,2.8,0.3,4.1,0.8v3h-1.9v-1.8c-0.6-0.2-1.4-0.3-2.3-0.3c-1.5,0-2.6,0.4-3.4,1.2c-0.8,0.8-1.2,2-1.2,3.5
			c0,1.7,0.4,3,1.2,3.8c0.8,0.9,2,1.3,3.5,1.3c1.4,0,2.8-0.4,4.1-1.1L263.5,188L263.5,188z"/>
		<path class="st1" d="M270.9,189c-1,0-1.9-0.3-2.6-0.8s-1-1.3-1-2.4v-8.6h-1.9v-1.8h1.9v-3.5l1.9-0.4v3.8h4.2v1.8h-4.2v8.2
			c0,0.6,0.2,1,0.6,1.3s0.9,0.4,1.4,0.4c0.7,0,1.4-0.2,2.2-0.6v1.7C272.6,188.8,271.8,189,270.9,189z"/>
		<path class="st1" d="M275,187.2h1.9v-9.9H275v-1.8h3.8v11.7h1.9v1.8H275V187.2z M276.3,172.2c0-0.5,0.1-0.9,0.4-1.2s0.6-0.4,1-0.4
			s0.8,0.1,1,0.4c0.3,0.3,0.4,0.6,0.4,1.1s-0.1,0.8-0.4,1.1s-0.6,0.4-1,0.4s-0.8-0.1-1-0.4C276.4,172.9,276.3,172.6,276.3,172.2z"/>
		<path class="st1" d="M283.3,182.3c0-2.1,0.6-3.8,1.8-5c1.2-1.2,2.7-1.8,4.5-1.8s3.2,0.6,4.3,1.7c1.1,1.1,1.6,2.7,1.6,4.8
			s-0.6,3.8-1.7,5.1s-2.6,1.9-4.5,1.9c-1.8,0-3.2-0.6-4.3-1.8S283.3,184.4,283.3,182.3z M285.4,182.1c0,1.7,0.4,3,1.1,3.9
			s1.7,1.3,3,1.3s2.2-0.4,2.9-1.3c0.7-0.8,1-2.1,1-3.7c0-1.7-0.3-2.9-1-3.7s-1.7-1.2-3.1-1.2c-1.2,0-2.2,0.4-2.9,1.1
			S285.4,180.4,285.4,182.1z"/>
		<path class="st1" d="M298.1,187.2h1.9v-9.9h-1.9v-1.8h3.8l0.1,1.9l0,0c1.2-1.3,2.6-1.9,4.2-1.9c1.3,0,2.2,0.4,2.8,1.1
			c0.6,0.7,0.9,1.7,0.9,3v7.6h1.9v1.8H306v-1.8h1.9v-7.4c0-1-0.2-1.6-0.6-2s-1-0.6-1.7-0.6c-1.4,0-2.7,0.7-3.8,2.1v7.9h1.9v1.8h-5.8
			v-1.8H298.1z"/>
		<path class="st1" d="M330,185.8l5.8-14.1h4.6v1.8h-1.9v13.8h1.9v1.8h-5.8v-1.8h1.9v-12.6h-0.1l-5.9,14.3h-1.4l-5.9-14.3h-0.1v12.6
			h1.9v1.8h-5.8v-1.8h1.9v-13.8h-1.9v-1.8h4.8l5.8,14.1H330z"/>
		<path class="st1" d="M342.9,176.7c1.6-0.7,3.2-1.1,4.9-1.1c1.5,0,2.5,0.3,3.3,1s1.1,1.7,1.1,3.2v7.5h1.9v1.8h-3.7l-0.1-2h-0.1
			c-1.2,1.3-2.5,2-4.1,2c-1.3,0-2.3-0.3-2.9-1c-0.7-0.7-1-1.6-1-2.7c0-2.9,2.3-4.3,6.8-4.3h1.3v-1.3c0-0.8-0.2-1.4-0.7-1.8
			c-0.4-0.4-1.1-0.6-2.1-0.6c-1.4,0-2.9,0.4-4.6,1.1L342.9,176.7L342.9,176.7z M348.6,182.8c-2.9,0-4.4,0.8-4.4,2.4
			c0,0.7,0.2,1.2,0.6,1.5s1,0.5,1.7,0.5c1.4,0,2.6-0.7,3.8-2v-2.5h-1.7V182.8z"/>
		<path class="st1" d="M355.8,187.2h1.9v-9.9h-1.9v-1.8h3.8l0.1,1.9l0,0c1.2-1.3,2.6-1.9,4.2-1.9c1.3,0,2.2,0.4,2.8,1.1
			c0.6,0.7,0.9,1.7,0.9,3v7.6h1.9v1.8h-5.8v-1.8h1.9v-7.4c0-1-0.2-1.6-0.6-2s-1-0.6-1.7-0.6c-1.4,0-2.7,0.7-3.8,2.1v7.9h1.9v1.8
			h-5.8v-1.8H355.8z"/>
		<path class="st1" d="M371.8,176.7c1.6-0.7,3.2-1.1,4.9-1.1c1.5,0,2.5,0.3,3.3,1s1.1,1.7,1.1,3.2v7.5h1.9v1.8h-3.7l-0.1-2h-0.1
			c-1.2,1.3-2.5,2-4.1,2c-1.3,0-2.3-0.3-2.9-1c-0.7-0.7-1-1.6-1-2.7c0-2.9,2.3-4.3,6.8-4.3h1.3v-1.3c0-0.8-0.2-1.4-0.7-1.8
			c-0.4-0.4-1.1-0.6-2.1-0.6c-1.4,0-2.9,0.4-4.6,1.1L371.8,176.7L371.8,176.7z M377.5,182.8c-2.9,0-4.4,0.8-4.4,2.4
			c0,0.7,0.2,1.2,0.6,1.5s1,0.5,1.7,0.5c1.4,0,2.6-0.7,3.8-2v-2.5h-1.7V182.8z"/>
		<path class="st1" d="M394.2,188.5v-0.9h-0.1c-1,1-2.2,1.5-3.5,1.5c-1.6,0-2.8-0.6-3.9-1.8c-1-1.2-1.5-2.8-1.5-4.6
			c0-2.1,0.6-3.8,1.7-5.1s2.7-1.9,4.7-1.9c1.3,0,2.8,0.2,4.5,0.7v12.2c0,2.2-0.5,3.9-1.4,4.8c-0.9,1-2.4,1.5-4.4,1.5
			c-1.3,0-2.6-0.2-3.8-0.5v-1.9c1.2,0.4,2.4,0.6,3.8,0.6s2.4-0.3,3-0.9C393.9,191.5,394.2,190.3,394.2,188.5z M394.2,177.6
			c-0.9-0.2-1.8-0.3-2.7-0.3c-1.4,0-2.5,0.4-3.1,1.2c-0.7,0.8-1,2.1-1,3.7c0,1.6,0.3,2.9,1,3.7s1.6,1.3,2.8,1.3
			c1.2,0,2.2-0.5,3.1-1.4L394.2,177.6L394.2,177.6z"/>
		<path class="st1" d="M407.1,187.2c1.4,0,2.8-0.4,4.1-1.3v1.9c-1.4,0.8-2.8,1.2-4.4,1.2c-1.9,0-3.4-0.6-4.6-1.8
			c-1.1-1.2-1.7-2.8-1.7-4.7c0-2.2,0.5-3.9,1.7-5.1s2.5-1.8,4.3-1.8c1.6,0,2.8,0.5,3.6,1.6c0.9,1.1,1.3,2.5,1.3,4.4v1h-8.8
			c0.1,1.5,0.4,2.6,1.1,3.5C404.5,186.8,405.6,187.2,407.1,187.2z M409.6,180.8c-0.1-2.3-1.2-3.5-3.2-3.5c-1.1,0-1.9,0.3-2.5,0.9
			c-0.6,0.6-1,1.5-1.1,2.5h6.8V180.8z"/>
		<path class="st1" d="M413.5,187.2h1.9v-9.9h-1.9v-1.8h3.7l0.1,1.8h0.1c1.1-1.2,2.5-1.8,4.1-1.8c1.7,0,2.8,0.7,3.4,2.1h0.1
			c1.2-1.4,2.6-2.1,4.3-2.1c1.2,0,2.1,0.3,2.8,1c0.6,0.7,0.9,1.6,0.9,2.9v7.8h1.9v1.8h-5.8v-1.8h1.9V180c0-0.9-0.2-1.6-0.6-2
			s-1-0.6-1.7-0.6c-1.3,0-2.5,0.7-3.6,2.1v7.9h1.9v1.8h-5.8v-1.8h1.9V180c0-0.9-0.2-1.6-0.6-2s-1-0.6-1.7-0.6
			c-1.3,0-2.5,0.7-3.6,2.1v7.9h1.9v1.8h-5.8v-2H413.5z"/>
		<path class="st1" d="M443.6,187.2c1.4,0,2.8-0.4,4.1-1.3v1.9c-1.4,0.8-2.8,1.2-4.4,1.2c-1.9,0-3.4-0.6-4.6-1.8
			c-1.1-1.2-1.7-2.8-1.7-4.7c0-2.2,0.5-3.9,1.7-5.1s2.5-1.8,4.3-1.8c1.6,0,2.8,0.5,3.6,1.6c0.9,1.1,1.3,2.5,1.3,4.4v1h-8.8
			c0.1,1.5,0.4,2.6,1.1,3.5C441.1,186.8,442.2,187.2,443.6,187.2z M446.1,180.8c-0.1-2.3-1.2-3.5-3.2-3.5c-1.1,0-1.9,0.3-2.5,0.9
			c-0.6,0.6-1,1.5-1.1,2.5h6.8V180.8z"/>
		<path class="st1" d="M450,187.2h1.9v-9.9H450v-1.8h3.8l0.1,1.9l0,0c1.2-1.3,2.6-1.9,4.2-1.9c1.3,0,2.2,0.4,2.8,1.1
			c0.6,0.7,0.9,1.7,0.9,3v7.6h1.9v1.8H458v-1.8h1.9v-7.4c0-1-0.2-1.6-0.6-2s-1-0.6-1.7-0.6c-1.4,0-2.7,0.7-3.8,2.1v7.9h1.9v1.8H450
			V187.2z"/>
		<path class="st1" d="M470.9,189c-1,0-1.9-0.3-2.6-0.8s-1-1.3-1-2.4v-8.6h-1.9v-1.8h1.9v-3.5l1.9-0.4v3.8h4.2v1.8h-4.2v8.2
			c0,0.6,0.2,1,0.6,1.3s0.9,0.4,1.4,0.4c0.7,0,1.4-0.2,2.2-0.6v1.7C472.6,188.8,471.8,189,470.9,189z"/>
		<path class="st1" d="M485.8,189c-1.7,0-3.4-0.4-5.1-1.1v-4.1h1.9v2.9c1,0.3,2.1,0.5,3.5,0.5c1.3,0,2.4-0.3,3.1-0.8
			s1.1-1.2,1.1-1.9c0-0.4-0.1-0.8-0.2-1.1c-0.2-0.3-0.4-0.6-0.8-0.8c-0.3-0.2-0.8-0.5-1.3-0.7s-1.2-0.4-1.9-0.7
			c-0.6-0.2-1.3-0.4-1.9-0.7s-1.3-0.6-1.8-0.9c-0.5-0.4-1-0.8-1.3-1.4c-0.3-0.5-0.5-1.2-0.5-2c0-1.4,0.6-2.5,1.7-3.4
			s2.7-1.3,4.6-1.3c1.8,0,3.3,0.4,4.8,1.1v4h-1.9V174c-0.8-0.3-1.8-0.5-3.1-0.5c-1.3,0-2.3,0.3-2.9,0.8c-0.7,0.5-1,1.1-1,1.9
			c0,0.5,0.1,0.9,0.3,1.2c0.2,0.3,0.5,0.6,0.8,0.8c0.4,0.2,0.8,0.5,1.3,0.7s1.2,0.4,1.9,0.7c0.6,0.2,1.3,0.4,1.9,0.7
			c0.7,0.3,1.2,0.6,1.8,0.9c0.5,0.4,0.9,0.8,1.3,1.3s0.5,1.2,0.5,1.9c0,1.5-0.6,2.7-1.8,3.5C489.5,188.6,487.9,189,485.8,189z"/>
		<path class="st1" d="M494.9,182.3c0-2.1,0.6-3.8,1.8-5c1.2-1.2,2.7-1.8,4.5-1.8s3.2,0.6,4.3,1.7c1.1,1.1,1.6,2.7,1.6,4.8
			s-0.6,3.8-1.7,5.1s-2.6,1.9-4.5,1.9c-1.8,0-3.2-0.6-4.3-1.8C495.4,186,494.9,184.4,494.9,182.3z M496.9,182.1c0,1.7,0.4,3,1.1,3.9
			s1.7,1.3,3,1.3s2.2-0.4,2.9-1.3s1-2.1,1-3.7c0-1.7-0.3-2.9-1-3.7s-1.7-1.2-3.1-1.2c-1.2,0-2.2,0.4-2.9,1.1
			S496.9,180.4,496.9,182.1z"/>
		<path class="st1" d="M509.6,187.2h1.9v-15.7h-1.9v-1.8h3.8v17.5h1.9v1.8h-5.8L509.6,187.2L509.6,187.2z"/>
		<path class="st1" d="M526.9,177.3H525v-1.8h3.8v11.7h1.9v1.8H527l-0.1-1.9h-0.1c-1,1.2-2.3,1.9-3.9,1.9c-1.3,0-2.3-0.3-3-1
			s-1-1.6-1-2.9v-7.9H517v-1.8h3.8v9.2c0,1,0.2,1.7,0.7,2s1.1,0.5,1.8,0.5c1.5,0,2.6-0.6,3.6-1.8L526.9,177.3L526.9,177.3z"/>
		<path class="st1" d="M538.2,189c-1,0-1.9-0.3-2.6-0.8s-1-1.3-1-2.4v-8.6h-1.9v-1.8h1.9v-3.5l1.9-0.4v3.8h4.2v1.8h-4.2v8.2
			c0,0.6,0.2,1,0.6,1.3c0.4,0.3,0.9,0.4,1.4,0.4c0.7,0,1.4-0.2,2.2-0.6v1.7C539.9,188.8,539.1,189,538.2,189z"/>
		<path class="st1" d="M542.3,187.2h1.9v-9.9h-1.9v-1.8h3.8v11.7h1.9v1.8h-5.8L542.3,187.2L542.3,187.2z M543.6,172.2
			c0-0.5,0.1-0.9,0.4-1.2c0.3-0.3,0.6-0.4,1-0.4s0.8,0.1,1,0.4c0.3,0.3,0.4,0.6,0.4,1.1s-0.1,0.8-0.4,1.1c-0.3,0.3-0.6,0.4-1,0.4
			s-0.8-0.1-1-0.4C543.7,172.9,543.6,172.6,543.6,172.2z"/>
		<path class="st1" d="M550.6,182.3c0-2.1,0.6-3.8,1.8-5s2.7-1.8,4.5-1.8s3.2,0.6,4.3,1.7c1.1,1.1,1.6,2.7,1.6,4.8s-0.6,3.8-1.7,5.1
			c-1.1,1.3-2.6,1.9-4.5,1.9c-1.8,0-3.2-0.6-4.3-1.8C551.2,186,550.6,184.4,550.6,182.3z M552.7,182.1c0,1.7,0.4,3,1.1,3.9
			c0.7,0.9,1.7,1.3,3,1.3s2.2-0.4,2.9-1.3s1-2.1,1-3.7c0-1.7-0.3-2.9-1-3.7s-1.7-1.2-3.1-1.2c-1.2,0-2.2,0.4-2.9,1.1
			S552.7,180.4,552.7,182.1z"/>
		<path class="st1" d="M565.4,187.2h1.9v-9.9h-1.9v-1.8h3.8l0.1,1.9l0,0c1.2-1.3,2.6-1.9,4.2-1.9c1.3,0,2.2,0.4,2.8,1.1
			c0.6,0.7,0.9,1.7,0.9,3v7.6h1.9v1.8h-5.8v-1.8h1.9v-7.4c0-1-0.2-1.6-0.6-2c-0.4-0.4-1-0.6-1.7-0.6c-1.4,0-2.7,0.7-3.8,2.1v7.9h1.9
			v1.8h-5.8v-1.8H565.4z"/>
	</g>
</g>
</svg>
