<?xml version="1.0" encoding="utf-8"?>
<!-- Generator: Adobe Illustrator 21.0.2, SVG Export Plug-In . SVG Version: 6.00 Build 0)  -->
<svg version="1.1" id="Layer_1" xmlns="http://www.w3.org/2000/svg" xmlns:xlink="http://www.w3.org/1999/xlink" x="0px" y="0px"
	 viewBox="0 0 205.3 205.3" style="enable-background:new 0 0 205.3 205.3;" xml:space="preserve">
<style type="text/css">
	.st0{fill:#FFFFFF;}
</style>
<g id="Layer_1_1_">
	<g>
		<g id="XMLID_1_">
			<g>
				<path class="st0" d="M92,48c2.1,1.1,4.3,2.3,6.4,3.3c5.3,2.5,10.7,5.1,16.1,7.4c12.8,5.6,22.7,14.8,31.6,25.2
					c9.3,10.7,15.5,23.2,17.7,37.2c2.3,14.5,3.5,29.2,5,43.8c0.4,4.4,0.1,8.9,0.1,13.6c-22.9,0-45.7,0-68.8,0c0.4-1.4,0.7-2.5,1-3.6
					c1.3-4.9,2.8-9.8,3.8-14.8c0.6-3.1-0.3-6-2.1-8.6c-0.8-1.3-1.9-1.9-3.2-1.1c-2.2,1.3-4.6,2.4-6.2,4.3
					c-4.9,5.6-6.7,12.4-7.1,19.7c-0.1,1.3,0,2.6,0,4.2c-13,0-26,0-39.2,0c1.7-1.8,3.3-3.8,5.1-5.6c14.5-14.7,21.9-32.7,25-52.8
					c1.1-7.2,2.3-14.4,0.7-21.7c-1.7-7.5-5.6-13.9-10.4-19.8C60.4,69.8,53,61.1,46,52c-3.3-4.2-5.9-8.9-8.6-13.5
					c-2.3-3.8-0.8-7.4,1.1-10.9c0.3-0.5,1.6-1,2.2-0.9c3.9,0.9,8,1.7,11.7,3.2c4.4,1.7,8.7,3,13.4,3.2c2.5,0.1,5,0.8,7.3,1.8
					c5.1,2.2,10,4.5,15.8,4.4c1.9,0,3.9,0.8,5.7,1.6c1.9,0.8,3.3,2.6,2.5,4.6c-0.4,0.9-2.4,1.2-3.7,1.7C93.1,47.5,92.6,47.4,92,48z"
					/>
			</g>
		</g>
	</g>
</g>
</svg>
