<?xml version="1.0" encoding="utf-8"?>
<!-- Generator: Adobe Illustrator 18.0.0, SVG Export Plug-In . SVG Version: 6.00 Build 0)  -->
<!DOCTYPE svg PUBLIC "-//W3C//DTD SVG 1.1//EN" "http://www.w3.org/Graphics/SVG/1.1/DTD/svg11.dtd">
<svg version="1.1" xmlns="http://www.w3.org/2000/svg" xmlns:xlink="http://www.w3.org/1999/xlink" x="0px" y="0px"
	 viewBox="0 0 414 414" enable-background="new 0 0 414 414" xml:space="preserve">
<g id="Background">
	<g>
		<path fill="#666666" d="M414,364c0,27.5-22.5,50-50,50H50c-27.5,0-50-22.5-50-50V50C0,22.5,22.5,0,50,0h314c27.5,0,50,22.5,50,50
			V364z"/>
	</g>
</g>
<g id="House">
	<g>
		<path fill="#FFFFFF" d="M201.5,38.4c3-0.4,12.9,0.1,14.8,0c2.5-0.1,54.9,49.9,58.1,54.3c2.3,0.6,2.5-1,3.9-2.7
			c3.1-3.8,10.5-13.6,12-16.3c1.2-2.2,2.4-3.2,4.9-3.2c8.2,0.1,28.7,0,31,0c1.7,0,8.3-0.8,8.6,2.9c0.5,6.4,0.9,66.6,0.6,71.1
			c-0.2,2.7,55.6,54.8,55.6,56.4c0,5.1,0.2,14.1-6.7,14.2c-9.3,0.1-18.6,0.1-27.9,0.1c-4.3,0-4.7,0.9-5.2,5
			c-1.7,14.7,0,124.8,0.1,139.6c0,11.8-4.1,13-13.2,13.3c-5.8,0.2-244.2,1.8-263.2,1.6c-7.2,0-9.8-3.7-10.6-9.5
			c-0.6-4.2-1.4-137.8-1.8-142.8c-0.3-4.5-2.9-6.9-7.5-7.2c-6.8-0.4-13.5-0.5-20.3-0.8c-2.7-0.1-5.7,0.2-8-0.9
			c-1.7-0.8-3.1-3.4-3.6-5.5c-0.5-2.2,0.3-4.6,0.5-6.9C23.4,198.9,199.3,38.7,201.5,38.4z M186.1,273c8.6,0,16.6,0.6,24.5-0.1
			c24-2.3,40.6-16.7,40.1-43.6c-0.4-22.2-11.3-35.5-33.3-37.9c-15.8-1.8-31.9-1.1-47.9-1.4c-0.2,0-0.4,0.3-0.6,0.4
			c0,45.5,0,90.9,0,136.4c5.8,0,11.3,0,17.1,0c0-9,0-17.7,0-26.5C186.1,291.5,186.1,282.8,186.1,273z M266.8,191
			c0.8,0.1,1.3,0.2,1.8,0.2c10.5,0.7,14.1,4.5,14.2,15.1c0.1,9.7,0,19.5,0,29.2c0.1,13.4,5.9,20.7,19,24c1,0.2,1.9,0.7,3.5,1.4
			c-1.2,0.5-1.7,0.6-2.1,0.8c-16,4.6-20.4,10.4-20.4,27.1c0,9.5,0.1,19-0.1,28.5c-0.1,7.9-3.6,11.7-11.3,12.8
			c-1.6,0.2-3.1,0.5-4.6,0.8c0,4.7,0,9,0,13.8c3.9-0.4,7.5-0.6,11-1.2c11.9-2,20-9.8,21.9-21c0.4-2.7,0.3-5.5,0.3-8.2
			c0-9.4-0.1-18.7,0.1-28.1c0.2-9.9,4.5-15,14.1-16.8c3.1-0.6,6.4-0.9,9.6-1.3c0-4.9,0-9.5,0-14.5c-1.5,0-2.7,0.1-3.9,0
			c-13-1.2-20.2-5.4-19.8-20.6c0.2-9.4-0.2-18.7,0.1-28.1c0.5-19.1-16-28.3-33.3-27C266.8,182,266.8,186.3,266.8,191z M89.1,254.5
			c0,1.8,0,4.2,0,6.7c0,6.6,0,6.6,6.4,7.3c9.3,0.9,15.3,5,16.8,11.8c0.6,2.7,0.7,5.4,0.7,8.2c0.1,9.7,0.2,19.5,0,29.2
			c-0.3,19.2,17.4,27.9,33.1,26.1c0-4.3,0-8.6,0-13.1c-1.3-0.2-2.3-0.4-3.4-0.6c-9.3-1.4-12-4.2-12.4-13.7
			c-0.4-11.5-0.2-23-0.5-34.5c-0.2-8.9-5.1-14.9-13.2-18.2c-2.7-1.1-5.5-1.9-9.4-3.2c2.3-0.6,3.5-1,4.8-1.3
			c9.8-2.5,17.9-9.2,18-20.9c0.1-9.7,0.2-19.5,0.2-29.2c0-13.9,2.2-16.4,15.9-18.4c0-4.5,0-9.1,0-13.7c-2.5,0.2-4.8,0.3-7,0.6
			c-6.3,0.8-12.2,2.5-17.2,6.6c-6.6,5.4-8.9,12.6-8.9,20.9c0,11.4-0.1,22.7-0.5,34.1c-0.2,5.3-2.9,9.5-7.9,11.2
			C99.9,252.2,94.9,253.1,89.1,254.5z"/>
		<path fill="none" d="M186.1,273c0,9.8,0,18.6,0,27.3c0,8.7,0,17.5,0,26.5c-5.8,0-11.3,0-17.1,0c0-45.5,0-90.9,0-136.4
			c0.2-0.1,0.4-0.4,0.6-0.4c16,0.4,32.1-0.3,47.9,1.4c22,2.4,32.9,15.7,33.3,37.9c0.5,26.9-16.1,41.3-40.1,43.6
			C202.7,273.6,194.7,273,186.1,273z M186.3,258.6c6.5,0,12.7,0.3,18.8-0.1c7.1-0.5,14.2-1.6,19.8-6.7c8.6-7.9,8.9-17.9,7.1-28.3
			c-1.2-7.1-5.1-12.4-11.8-15.3c-10.9-4.7-22.4-3.3-33.8-3.4C186.3,223,186.3,240.6,186.3,258.6z"/>
		<path fill="none" d="M266.8,191c0-4.6,0-9,0-13.3c17.3-1.3,33.8,7.9,33.3,27c-0.2,9.4,0.1,18.7-0.1,28.1
			c-0.4,15.2,6.9,19.4,19.8,20.6c1.2,0.1,2.5,0,3.9,0c0,5,0,9.6,0,14.5c-3.2,0.4-6.5,0.7-9.6,1.3c-9.6,1.9-13.9,7-14.1,16.8
			c-0.1,9.4,0,18.7-0.1,28.1c0,2.7,0.1,5.5-0.3,8.2c-1.9,11.3-10,19-21.9,21c-3.5,0.6-7.1,0.8-11,1.2c0-4.8,0-9.1,0-13.8
			c1.5-0.2,3-0.5,4.6-0.8c7.7-1.1,11.1-4.9,11.3-12.8c0.1-9.5,0.1-19,0.1-28.5c0-16.6,4.4-22.5,20.4-27.1c0.4-0.1,0.9-0.3,2.1-0.8
			c-1.6-0.7-2.5-1.2-3.5-1.4c-13.1-3.3-18.9-10.6-19-24c-0.1-9.7,0.1-19.5,0-29.2c-0.1-10.6-3.7-14.4-14.2-15.1
			C268.2,191.2,267.7,191.1,266.8,191z"/>
		<path fill="none" d="M89.1,254.5c5.8-1.5,10.8-2.4,15.6-4c5.1-1.8,7.7-6,7.9-11.2c0.4-11.4,0.5-22.7,0.5-34.1
			c0-8.3,2.3-15.5,8.9-20.9c5-4.1,11-5.8,17.2-6.6c2.2-0.3,4.5-0.4,7-0.6c0,4.7,0,9.2,0,13.7c-13.7,2-15.9,4.6-15.9,18.4
			c0,9.7-0.1,19.5-0.2,29.2c-0.1,11.7-8.2,18.4-18,20.9c-1.2,0.3-2.5,0.7-4.8,1.3c3.8,1.3,6.7,2.1,9.4,3.2c8.1,3.3,13,9.2,13.2,18.2
			c0.3,11.5,0.1,23,0.5,34.5c0.4,9.5,3.1,12.3,12.4,13.7c1.1,0.2,2.2,0.4,3.4,0.6c0,4.4,0,8.8,0,13.1c-15.8,1.8-33.4-7-33.1-26.1
			c0.2-9.7,0.1-19.5,0-29.2c0-2.7-0.2-5.5-0.7-8.2c-1.5-6.8-7.5-10.9-16.8-11.8c-6.4-0.6-6.4-0.6-6.4-7.3
			C89.1,258.8,89.1,256.3,89.1,254.5z"/>
		<path fill="#FFFFFF" d="M186.3,258.6c0-17.9,0-35.6,0-53.8c11.5,0.1,22.9-1.3,33.8,3.4c6.7,2.9,10.6,8.2,11.8,15.3
			c1.7,10.4,1.5,20.5-7.1,28.3c-5.6,5.1-12.7,6.2-19.8,6.7C198.9,258.9,192.8,258.6,186.3,258.6z"/>
	</g>
</g>
</svg>
